<svg width="594" height="212" viewBox="0 0 594 212" fill="none" xmlns="http://www.w3.org/2000/svg">
<rect width="593.908" height="211.816" rx="18" fill="#FFCE00"/>
<path d="M181.889 107.713V107.487C181.889 85.3773 198.755 67.103 222.278 67.103C246.023 67.103 262.445 85.3773 262.445 107.261V107.487C262.445 129.597 245.58 147.871 222.056 147.871C198.533 147.871 181.889 129.597 181.889 107.713ZM248.465 107.713V107.487C248.465 92.3712 237.591 79.7371 222.278 79.7371C206.966 79.7371 196.314 92.1456 196.314 107.261V107.487C196.314 122.603 207.188 135.237 222.5 135.237C237.812 135.237 248.465 122.829 248.465 107.713ZM282.418 74.7737V140.426C282.418 144.261 285.303 147.194 289.076 147.194C292.848 147.194 295.733 144.261 295.733 140.426V93.4993L314.375 121.926C315.928 124.182 317.481 125.536 319.923 125.536C322.364 125.536 324.139 124.182 325.692 121.926L344.556 93.2737V140.201C344.556 143.81 347.662 146.969 351.213 146.969C354.986 146.969 358.093 144.036 358.093 140.201V74.7737C358.093 70.9383 355.208 67.7798 351.213 67.7798H349.882C347.219 67.7798 345.221 68.9078 343.668 71.3895L320.144 108.615L297.065 71.6152C295.733 69.5847 293.736 68.0054 290.851 68.0054H289.52C285.525 67.7798 282.418 70.9383 282.418 74.7737ZM377.621 137.719L406.249 72.9688C407.802 69.5847 410.465 67.3286 414.46 67.3286H415.126C418.898 67.3286 421.561 69.3591 423.115 72.9688L451.742 137.719C452.186 138.621 452.408 139.749 452.408 140.652C452.408 144.261 449.745 147.194 445.973 147.194C442.866 147.194 440.646 145.39 439.315 142.457L433.101 127.792H395.597L389.161 142.908C388.052 145.615 385.832 147.194 382.947 147.194C379.397 147.194 376.734 144.487 376.734 140.877C376.734 139.749 377.178 138.621 377.621 137.719ZM428.219 115.383L414.682 83.7981L401.145 115.383H428.219ZM471.049 75.2249C471.049 71.3895 473.934 68.231 477.929 68.231H499.899C524.088 68.231 540.954 85.1517 540.954 107.036V107.261C540.954 129.371 524.088 146.292 499.899 146.292H477.929C474.156 146.292 471.049 143.359 471.049 139.298V75.2249ZM499.899 134.109C516.099 134.109 526.751 123.054 526.751 107.713V107.487C526.751 92.1456 516.099 80.8652 499.899 80.8652H484.586V134.109H499.899ZM52.9539 144.487C52.9539 148.097 55.8388 151.255 59.6114 151.255C63.1621 151.255 66.269 148.322 66.269 144.487V78.6091L147.713 147.42C150.154 149.451 151.708 151.03 155.037 151.03H155.48C159.253 151.03 162.138 148.097 162.138 144.261V65.7493C162.138 62.1395 159.253 58.981 155.48 58.981C151.93 58.981 148.823 61.9139 148.823 65.7493V130.725L68.4882 62.8164C66.269 60.7859 64.4936 58.981 61.1649 58.981H59.8333C55.8388 58.981 52.9539 62.1395 52.9539 65.9749V144.487ZM91.5678 107.487C87.7952 107.487 84.9102 110.42 84.9102 114.255V154.64C84.9102 158.249 87.7952 161.408 91.5678 161.408C95.1185 161.408 98.2253 158.475 98.2253 154.64V114.03C98.2253 110.42 95.3404 107.487 91.5678 107.487ZM123.746 134.335C119.973 134.335 117.088 137.268 117.088 141.103V154.64C117.088 158.249 119.973 161.408 123.746 161.408C127.297 161.408 130.404 158.475 130.404 154.64V141.103C130.182 137.268 127.297 134.335 123.746 134.335ZM123.746 50.4078C119.973 50.4078 117.088 53.3408 117.088 57.1761V95.3042C117.088 98.9139 119.973 102.072 123.746 102.072C127.297 102.072 130.404 99.1395 130.404 95.3042V57.1761C130.182 53.3408 127.297 50.4078 123.746 50.4078ZM91.5678 50.4078C87.7952 50.4078 84.9102 53.3408 84.9102 57.1761V68.4566C84.9102 72.0664 87.7952 75.2249 91.5678 75.2249C95.1185 75.2249 98.2253 72.292 98.2253 68.4566V57.1761C98.2253 53.3408 95.3404 50.4078 91.5678 50.4078Z" fill="#1A1A13"/>
</svg>
